<svg t="1582627915198" class="icon" viewBox="0 0 1024 1024" version="1.1" xmlns="http://www.w3.org/2000/svg" p-id="25862" id="mx_n_1582627915199" width="32" height="32"><path d="M298.3 256c-47.1 0-85.3 38.2-85.3 85.3v512c0 47.1 38.2 85.3 85.3 85.3h128V1024H597v-85.3h128c47.1 0 85.3-38.2 85.3-85.3v-512c0-47.1-38.2-85.3-85.3-85.3V0H298.3v256z" fill="#666666" p-id="25863"></path><path d="M255.7 341.3c0-23.6 19.1-42.7 42.7-42.7H725c23.6 0 42.7 19.1 42.7 42.7v512c0 23.6-19.1 42.7-42.7 42.7H298.3c-23.6 0-42.7-19.1-42.7-42.7v-512h0.1z" fill="#fa0505" p-id="25864" data-spm-anchor-id="a313x.7781069.0.i62" class="selected"></path><path d="M341 42.7h341.3V256H341z" fill="#fa0505" p-id="25865" data-spm-anchor-id="a313x.7781069.0.i60" class="selected"></path><path d="M341 341.3h42.7v512H341v-512z m298.7 0h42.7v512h-42.7v-512zM469 128h85.3v128H469z" fill="#fa0505" p-id="25866" data-spm-anchor-id="a313x.7781069.0.i61" class="selected"></path></svg>